<svg width="914" height="31" viewBox="0 0 914 31" fill="none" xmlns="http://www.w3.org/2000/svg">
<rect width="914" height="31" fill="#04879A"/>
<path d="M15.512 14.7464C15.4722 14.3454 15.3015 14.0339 14.9999 13.8118C14.6983 13.5897 14.2889 13.4787 13.7719 13.4787C13.4206 13.4787 13.1239 13.5284 12.882 13.6278C12.64 13.724 12.4544 13.8582 12.3252 14.0305C12.1992 14.2029 12.1362 14.3984 12.1362 14.6172C12.1296 14.7995 12.1677 14.9586 12.2506 15.0945C12.3368 15.2304 12.4544 15.348 12.6036 15.4474C12.7527 15.5436 12.9251 15.6281 13.1206 15.701C13.3162 15.7706 13.525 15.8303 13.747 15.88L14.6618 16.0987C15.1059 16.1982 15.5136 16.3307 15.8848 16.4964C16.256 16.6622 16.5775 16.866 16.8493 17.108C17.1211 17.3499 17.3316 17.6349 17.4807 17.9631C17.6332 18.2912 17.7111 18.6674 17.7144 19.0916C17.7111 19.7147 17.552 20.255 17.2371 20.7124C16.9255 21.1664 16.4748 21.5194 15.8848 21.7713C15.2982 22.0199 14.5906 22.1442 13.762 22.1442C12.94 22.1442 12.2241 22.0182 11.6142 21.7663C11.0077 21.5144 10.5337 21.1416 10.1924 20.6477C9.85429 20.1506 9.67697 19.5357 9.66039 18.8033H11.7435C11.7667 19.1446 11.8645 19.4297 12.0368 19.6584C12.2125 19.8838 12.4461 20.0545 12.7378 20.1705C13.0328 20.2831 13.3659 20.3395 13.7371 20.3395C14.1017 20.3395 14.4182 20.2865 14.6867 20.1804C14.9585 20.0743 15.1689 19.9268 15.3181 19.7379C15.4672 19.549 15.5418 19.3319 15.5418 19.0866C15.5418 18.858 15.4738 18.6657 15.338 18.5099C15.2054 18.3542 15.0098 18.2216 14.7513 18.1122C14.4961 18.0028 14.1829 17.9034 13.8117 17.8139L12.703 17.5355C11.8446 17.3267 11.1668 17.0002 10.6696 16.5561C10.1725 16.112 9.92555 15.5137 9.92886 14.7614C9.92555 14.1449 10.0896 13.6063 10.421 13.1456C10.7558 12.6849 11.2148 12.3253 11.7982 12.0668C12.3815 11.8082 13.0444 11.679 13.7868 11.679C14.5425 11.679 15.2021 11.8082 15.7655 12.0668C16.3323 12.3253 16.7731 12.6849 17.088 13.1456C17.4028 13.6063 17.5652 14.1399 17.5752 14.7464H15.512ZM28.146 15.3828H25.9685C25.9287 15.1011 25.8475 14.8509 25.7248 14.6321C25.6022 14.41 25.4448 14.2211 25.2525 14.0653C25.0603 13.9096 24.8382 13.7902 24.5864 13.7074C24.3378 13.6245 24.0677 13.5831 23.776 13.5831C23.249 13.5831 22.79 13.714 22.3989 13.9759C22.0078 14.2344 21.7045 14.6122 21.4891 15.1094C21.2736 15.6032 21.1659 16.2031 21.1659 16.9091C21.1659 17.6349 21.2736 18.2448 21.4891 18.7386C21.7078 19.2325 22.0127 19.6054 22.4038 19.8572C22.7949 20.1091 23.2473 20.2351 23.7611 20.2351C24.0494 20.2351 24.3162 20.197 24.5615 20.1207C24.8101 20.0445 25.0305 19.9335 25.2227 19.7876C25.415 19.6385 25.574 19.4579 25.7 19.2457C25.8293 19.0336 25.9187 18.7917 25.9685 18.5199L28.146 18.5298C28.0897 18.9972 27.9488 19.4479 27.7234 19.8821C27.5014 20.313 27.2014 20.6991 26.8236 21.0405C26.449 21.3786 26.0016 21.647 25.4812 21.8459C24.9642 22.0414 24.3792 22.1392 23.7263 22.1392C22.8181 22.1392 22.0061 21.9337 21.2902 21.5227C20.5776 21.1117 20.0141 20.5168 19.5998 19.7379C19.1889 18.959 18.9834 18.0161 18.9834 16.9091C18.9834 15.7988 19.1922 14.8542 19.6098 14.0753C20.0274 13.2964 20.5942 12.7031 21.3101 12.2955C22.026 11.8845 22.8314 11.679 23.7263 11.679C24.3162 11.679 24.8631 11.7618 25.3669 11.9276C25.874 12.0933 26.3231 12.3352 26.7142 12.6534C27.1053 12.9683 27.4235 13.3544 27.6687 13.8118C27.9173 14.2692 28.0764 14.7929 28.146 15.3828ZM31.2533 22H28.9464L32.4614 11.8182H35.2355L38.7454 22H36.4386L33.8882 14.1449H33.8087L31.2533 22ZM31.1091 17.9979H36.5579V19.6783H31.1091V17.9979ZM39.9709 22V11.8182H42.1236V20.2251H46.4887V22H39.9709ZM47.9143 22V11.8182H54.7751V13.593H50.067V16.0192H54.4221V17.794H50.067V20.2251H54.795V22H47.9143ZM62.8092 22.1491C62.1065 22.1491 61.5 22.0232 60.9896 21.7713C60.4792 21.5194 60.0864 21.178 59.8113 20.7472C59.5395 20.313 59.4036 19.8291 59.4036 19.2955C59.4036 18.8977 59.4832 18.5447 59.6423 18.2365C59.8014 17.9283 60.0234 17.6449 60.3085 17.3864C60.5935 17.1245 60.925 16.8643 61.3028 16.6058L63.2765 15.3082C63.5317 15.1458 63.719 14.9751 63.8383 14.7962C63.9576 14.6139 64.0173 14.4167 64.0173 14.2045C64.0173 14.0024 63.9361 13.8151 63.7737 13.6428C63.6113 13.4704 63.3809 13.3859 63.0826 13.3892C62.8838 13.3892 62.7114 13.4339 62.5656 13.5234C62.4197 13.6096 62.3054 13.724 62.2225 13.8665C62.143 14.0057 62.1032 14.1615 62.1032 14.3338C62.1032 14.5459 62.1629 14.7614 62.2822 14.9801C62.4015 15.1989 62.5606 15.4309 62.7595 15.6761C62.9583 15.9181 63.1754 16.1799 63.4108 16.4616L68.2382 22H66.0308L62.0038 17.5156C61.7386 17.214 61.4735 16.8991 61.2083 16.571C60.9465 16.2396 60.7277 15.8883 60.5521 15.517C60.3764 15.1425 60.2886 14.7365 60.2886 14.299C60.2886 13.8052 60.4029 13.361 60.6316 12.9666C60.8636 12.5722 61.1884 12.2607 61.6061 12.032C62.0237 11.8 62.5109 11.6839 63.0677 11.6839C63.6113 11.6839 64.0803 11.795 64.4747 12.017C64.8724 12.2358 65.1773 12.5275 65.3894 12.892C65.6049 13.2533 65.7126 13.651 65.7126 14.0852C65.7126 14.5658 65.5933 15.0017 65.3546 15.3928C65.1193 15.7805 64.7879 16.1286 64.3603 16.4368L62.2822 17.9332C62.0005 18.1387 61.7917 18.3492 61.6558 18.5646C61.5232 18.7768 61.4569 18.9806 61.4569 19.1761C61.4569 19.4181 61.5166 19.6352 61.6359 19.8274C61.7552 20.0196 61.9242 20.1721 62.143 20.2848C62.3617 20.3942 62.6186 20.4489 62.9136 20.4489C63.2715 20.4489 63.6245 20.3677 63.9725 20.2053C64.3239 20.0395 64.642 19.8059 64.9271 19.5043C65.2154 19.1993 65.4458 18.8381 65.6181 18.4205C65.7905 18.0028 65.8767 17.5405 65.8767 17.0334H67.6316C67.6316 17.6565 67.5637 18.2183 67.4278 18.7188C67.2919 19.2159 67.103 19.6501 66.861 20.0213C66.6191 20.3892 66.3423 20.6908 66.0308 20.9261C65.9313 20.9891 65.8352 21.0488 65.7424 21.1051C65.6496 21.1615 65.5535 21.2211 65.4541 21.2841C65.0762 21.589 64.6536 21.8094 64.1863 21.9453C63.7223 22.0812 63.2633 22.1491 62.8092 22.1491ZM79.152 15.1094C79.0824 14.8674 78.9847 14.6536 78.8587 14.468C78.7328 14.2791 78.5787 14.12 78.3964 13.9908C78.2174 13.8582 78.0119 13.7571 77.7799 13.6875C77.5512 13.6179 77.2976 13.5831 77.0192 13.5831C76.4989 13.5831 76.0415 13.7124 75.6471 13.9709C75.256 14.2294 74.9511 14.6056 74.7323 15.0994C74.5136 15.59 74.4042 16.1899 74.4042 16.8991C74.4042 17.6084 74.5119 18.2116 74.7273 18.7088C74.9428 19.206 75.2477 19.5855 75.6421 19.8473C76.0365 20.1058 76.5022 20.2351 77.0391 20.2351C77.5263 20.2351 77.9423 20.1489 78.287 19.9766C78.635 19.8009 78.9002 19.554 79.0824 19.2358C79.2681 18.9176 79.3609 18.5414 79.3609 18.1072L79.7984 18.1719H77.1734V16.5511H81.434V17.8338C81.434 18.7287 81.2451 19.4976 80.8672 20.1406C80.4894 20.7803 79.969 21.2741 79.3062 21.6222C78.6433 21.9669 77.8843 22.1392 77.0292 22.1392C76.0746 22.1392 75.2361 21.9287 74.5136 21.5078C73.791 21.0836 73.2276 20.482 72.8232 19.7031C72.4222 18.9209 72.2217 17.9929 72.2217 16.919C72.2217 16.0937 72.341 15.358 72.5796 14.7116C72.8216 14.062 73.1596 13.5118 73.5938 13.0611C74.028 12.6103 74.5334 12.2673 75.1101 12.032C75.6869 11.7966 76.3116 11.679 76.9844 11.679C77.5611 11.679 78.0981 11.7635 78.5952 11.9325C79.0924 12.0982 79.5332 12.3336 79.9177 12.6385C80.3055 12.9434 80.622 13.3063 80.8672 13.7273C81.1125 14.1449 81.2699 14.6056 81.3395 15.1094H79.152ZM83.051 22V11.8182H87.0681C87.837 11.8182 88.4933 11.9557 89.0368 12.2308C89.5837 12.5026 89.9996 12.8887 90.2847 13.3892C90.573 13.8864 90.7172 14.4714 90.7172 15.1442C90.7172 15.8203 90.5714 16.402 90.2797 16.8892C89.988 17.3731 89.5655 17.7443 89.012 18.0028C88.4618 18.2614 87.7956 18.3906 87.0134 18.3906H84.3237V16.6605H86.6654C87.0764 16.6605 87.4177 16.6042 87.6895 16.4915C87.9613 16.3788 88.1635 16.2098 88.296 15.9844C88.4319 15.759 88.4999 15.4789 88.4999 15.1442C88.4999 14.8061 88.4319 14.5211 88.296 14.2891C88.1635 14.0571 87.9596 13.8814 87.6845 13.7621C87.4128 13.6394 87.0697 13.5781 86.6554 13.5781H85.2037V22H83.051ZM88.5496 17.3665L91.0801 22H88.7037L86.2279 17.3665H88.5496ZM101.595 16.9091C101.595 18.0194 101.385 18.964 100.964 19.7429C100.546 20.5218 99.976 21.1167 99.2534 21.5277C98.5342 21.9354 97.7255 22.1392 96.8273 22.1392C95.9225 22.1392 95.1104 21.9337 94.3912 21.5227C93.672 21.1117 93.1036 20.5168 92.686 19.7379C92.2683 18.959 92.0595 18.0161 92.0595 16.9091C92.0595 15.7988 92.2683 14.8542 92.686 14.0753C93.1036 13.2964 93.672 12.7031 94.3912 12.2955C95.1104 11.8845 95.9225 11.679 96.8273 11.679C97.7255 11.679 98.5342 11.8845 99.2534 12.2955C99.976 12.7031 100.546 13.2964 100.964 14.0753C101.385 14.8542 101.595 15.7988 101.595 16.9091ZM99.4125 16.9091C99.4125 16.1899 99.3048 15.5833 99.0894 15.0895C98.8773 14.5956 98.5773 14.2211 98.1895 13.9659C97.8017 13.7107 97.3477 13.5831 96.8273 13.5831C96.3069 13.5831 95.8529 13.7107 95.4651 13.9659C95.0773 14.2211 94.7757 14.5956 94.5603 15.0895C94.3481 15.5833 94.2421 16.1899 94.2421 16.9091C94.2421 17.6283 94.3481 18.2348 94.5603 18.7287C94.7757 19.2225 95.0773 19.5971 95.4651 19.8523C95.8529 20.1075 96.3069 20.2351 96.8273 20.2351C97.3477 20.2351 97.8017 20.1075 98.1895 19.8523C98.5773 19.5971 98.8773 19.2225 99.0894 18.7287C99.3048 18.2348 99.4125 17.6283 99.4125 16.9091ZM105.099 22L102.185 11.8182H104.537L106.222 18.8928H106.307L108.166 11.8182H110.18L112.034 18.9077H112.124L113.809 11.8182H116.161L113.247 22H111.149L109.21 15.343H109.131L107.197 22H105.099ZM116.925 13.593V11.8182H125.287V13.593H122.17V22H120.042V13.593H116.925ZM126.664 22V11.8182H128.817V16.0192H133.187V11.8182H135.335V22H133.187V17.794H128.817V22H126.664Z" fill="white"/>
</svg>
