<svg width="1600" height="50" viewBox="0 0 1600 50" fill="none" xmlns="http://www.w3.org/2000/svg">
<rect width="1600" height="50" fill="#04879A"/>
<path d="M17.2005 31.9032V17.3578H22.9391C24.0376 17.3578 24.9751 17.5543 25.7516 17.9473C26.5328 18.3355 27.1271 18.8871 27.5343 19.6021C27.9462 20.3123 28.1522 21.148 28.1522 22.1092C28.1522 23.0751 27.9438 23.9061 27.5272 24.6021C27.1105 25.2934 26.5068 25.8237 25.7161 26.193C24.9301 26.5623 23.9784 26.747 22.861 26.747H19.0186V24.2754H22.3638C22.9509 24.2754 23.4386 24.1949 23.8269 24.0339C24.2151 23.8729 24.504 23.6314 24.6934 23.3095C24.8875 22.9875 24.9845 22.5874 24.9845 22.1092C24.9845 21.6262 24.8875 21.219 24.6934 20.8876C24.504 20.5562 24.2128 20.3052 23.8198 20.1348C23.4315 19.9596 22.9415 19.872 22.3496 19.872H20.2757V31.9032H17.2005ZM25.0556 25.2839L28.6706 31.9032H25.2757L21.7388 25.2839H25.0556ZM30.3255 31.9032V17.3578H40.1266V19.8933H33.4007V23.3592H39.6223V25.8947H33.4007V29.3677H40.155V31.9032H30.3255ZM50.4622 21.541C50.4054 20.9681 50.1615 20.523 49.7306 20.2058C49.2998 19.8885 48.715 19.7299 47.9764 19.7299C47.4745 19.7299 47.0507 19.801 46.7051 19.943C46.3594 20.0803 46.0943 20.2721 45.9096 20.5183C45.7297 20.7645 45.6397 21.0438 45.6397 21.3563C45.6303 21.6168 45.6847 21.844 45.8031 22.0382C45.9262 22.2323 46.0943 22.4004 46.3073 22.5424C46.5204 22.6797 46.7666 22.8005 47.046 22.9046C47.3253 23.0041 47.6236 23.0893 47.9409 23.1603L49.2477 23.4728C49.8822 23.6149 50.4645 23.8043 50.9948 24.041C51.5251 24.2778 51.9844 24.5689 52.3727 24.9146C52.7609 25.2602 53.0616 25.6674 53.2747 26.1362C53.4925 26.6049 53.6037 27.1423 53.6085 27.7484C53.6037 28.6385 53.3765 29.4103 52.9267 30.0637C52.4816 30.7124 51.8376 31.2167 50.9948 31.5765C50.1568 31.9316 49.1459 32.1092 47.9622 32.1092C46.7879 32.1092 45.7652 31.9293 44.894 31.5694C44.0275 31.2096 43.3504 30.6769 42.8627 29.9714C42.3798 29.2612 42.1265 28.3829 42.1028 27.3365H45.0786C45.1118 27.8242 45.2515 28.2313 45.4977 28.5581C45.7486 28.88 46.0824 29.1239 46.4991 29.2896C46.9205 29.4506 47.3964 29.5311 47.9267 29.5311C48.4475 29.5311 48.8997 29.4553 49.2832 29.3038C49.6715 29.1523 49.9721 28.9416 50.1852 28.6717C50.3983 28.4018 50.5048 28.0917 50.5048 27.7413C50.5048 27.4146 50.4077 27.14 50.2136 26.9174C50.0242 26.6949 49.7448 26.5055 49.3755 26.3492C49.0109 26.193 48.5635 26.051 48.0332 25.9231L46.4494 25.5254C45.2231 25.2271 44.2548 24.7607 43.5446 24.1262C42.8343 23.4918 42.4816 22.6371 42.4863 21.5623C42.4816 20.6816 42.716 19.9122 43.1894 19.2541C43.6677 18.5959 44.3234 18.0822 45.1568 17.7129C45.9901 17.3436 46.9371 17.1589 47.9977 17.1589C49.0772 17.1589 50.0195 17.3436 50.8244 17.7129C51.634 18.0822 52.2638 18.5959 52.7136 19.2541C53.1634 19.9122 53.3954 20.6745 53.4096 21.541H50.4622ZM69.0435 24.6305C69.0435 26.2167 68.7428 27.5661 68.1415 28.6788C67.5449 29.7915 66.7305 30.6414 65.6983 31.2285C64.6709 31.8109 63.5156 32.1021 62.2324 32.1021C60.9398 32.1021 59.7798 31.8085 58.7523 31.2214C57.7248 30.6343 56.9128 29.7844 56.3162 28.6717C55.7196 27.559 55.4213 26.2119 55.4213 24.6305C55.4213 23.0443 55.7196 21.6949 56.3162 20.5822C56.9128 19.4695 57.7248 18.622 58.7523 18.0396C59.7798 17.4525 60.9398 17.1589 62.2324 17.1589C63.5156 17.1589 64.6709 17.4525 65.6983 18.0396C66.7305 18.622 67.5449 19.4695 68.1415 20.5822C68.7428 21.6949 69.0435 23.0443 69.0435 24.6305ZM65.9256 24.6305C65.9256 23.603 65.7717 22.7366 65.4639 22.0311C65.1609 21.3256 64.7324 20.7905 64.1784 20.426C63.6245 20.0614 62.9758 19.8791 62.2324 19.8791C61.489 19.8791 60.8404 20.0614 60.2864 20.426C59.7324 20.7905 59.3015 21.3256 58.9938 22.0311C58.6907 22.7366 58.5392 23.603 58.5392 24.6305C58.5392 25.658 58.6907 26.5244 58.9938 27.2299C59.3015 27.9354 59.7324 28.4705 60.2864 28.835C60.8404 29.1996 61.489 29.3819 62.2324 29.3819C62.9758 29.3819 63.6245 29.1996 64.1784 28.835C64.7324 28.4705 65.1609 27.9354 65.4639 27.2299C65.7717 26.5244 65.9256 25.658 65.9256 24.6305ZM80.3059 17.3578H83.3812V26.8038C83.3812 27.8644 83.1279 28.7924 82.6213 29.5879C82.1194 30.3833 81.4162 31.0036 80.5119 31.4487C79.6075 31.889 78.554 32.1092 77.3514 32.1092C76.144 32.1092 75.0881 31.889 74.1838 31.4487C73.2794 31.0036 72.5763 30.3833 72.0744 29.5879C71.5725 28.7924 71.3215 27.8644 71.3215 26.8038V17.3578H74.3968V26.541C74.3968 27.095 74.5176 27.5874 74.759 28.0183C75.0053 28.4492 75.3509 28.7877 75.796 29.0339C76.2411 29.2801 76.7595 29.4032 77.3514 29.4032C77.948 29.4032 78.4664 29.2801 78.9068 29.0339C79.3519 28.7877 79.6951 28.4492 79.9366 28.0183C80.1828 27.5874 80.3059 27.095 80.3059 26.541V17.3578ZM85.9114 31.9032V17.3578H91.65C92.7485 17.3578 93.686 17.5543 94.4625 17.9473C95.2438 18.3355 95.838 18.8871 96.2452 19.6021C96.6571 20.3123 96.8631 21.148 96.8631 22.1092C96.8631 23.0751 96.6548 23.9061 96.2381 24.6021C95.8214 25.2934 95.2177 25.8237 94.427 26.193C93.641 26.5623 92.6893 26.747 91.5719 26.747H87.7296V24.2754H91.0747C91.6619 24.2754 92.1496 24.1949 92.5378 24.0339C92.9261 23.8729 93.2149 23.6314 93.4043 23.3095C93.5984 22.9875 93.6955 22.5874 93.6955 22.1092C93.6955 21.6262 93.5984 21.219 93.4043 20.8876C93.2149 20.5562 92.9237 20.3052 92.5307 20.1348C92.1425 19.9596 91.6524 19.872 91.0605 19.872H88.9867V31.9032H85.9114ZM93.7665 25.2839L97.3816 31.9032H93.9867L90.4497 25.2839H93.7665ZM111.87 22.4501H108.759C108.703 22.0476 108.587 21.6902 108.411 21.3777C108.236 21.0604 108.011 20.7905 107.737 20.568C107.462 20.3455 107.145 20.175 106.785 20.0566C106.43 19.9383 106.044 19.8791 105.627 19.8791C104.874 19.8791 104.219 20.0661 103.66 20.4402C103.101 20.8095 102.668 21.3492 102.36 22.0595C102.052 22.765 101.899 23.622 101.899 24.6305C101.899 25.6674 102.052 26.5386 102.36 27.2441C102.673 27.9496 103.108 28.4823 103.667 28.8421C104.226 29.202 104.872 29.3819 105.606 29.3819C106.018 29.3819 106.399 29.3275 106.749 29.2186C107.105 29.1097 107.419 28.951 107.694 28.7427C107.969 28.5296 108.196 28.2716 108.376 27.9686C108.561 27.6655 108.688 27.3199 108.759 26.9316L111.87 26.9458C111.79 27.6135 111.588 28.2574 111.267 28.8777C110.949 29.4932 110.521 30.0448 109.981 30.5325C109.446 31.0154 108.807 31.399 108.063 31.6831C107.325 31.9624 106.489 32.1021 105.556 32.1021C104.259 32.1021 103.099 31.8085 102.076 31.2214C101.058 30.6343 100.253 29.7844 99.6614 28.6717C99.0743 27.559 98.7807 26.2119 98.7807 24.6305C98.7807 23.0443 99.079 21.6949 99.6756 20.5822C100.272 19.4695 101.082 18.622 102.105 18.0396C103.127 17.4525 104.278 17.1589 105.556 17.1589C106.399 17.1589 107.18 17.2773 107.9 17.514C108.624 17.7508 109.266 18.0964 109.825 18.551C110.383 19.0008 110.838 19.5524 111.188 20.2058C111.543 20.8592 111.771 21.6073 111.87 22.4501ZM114.075 31.9032V17.3578H123.877V19.8933H117.151V23.3592H123.372V25.8947H117.151V29.3677H123.905V31.9032H114.075ZM133.458 31.9032H130.162L135.183 17.3578H139.146L144.161 31.9032H140.865L137.222 20.6816H137.108L133.458 31.9032ZM133.252 26.1859H141.036V28.5865H133.252V26.1859ZM145.911 31.9032V17.3578H148.987V29.3677H155.222V31.9032H145.911ZM157.259 31.9032V17.3578H160.334V29.3677H166.57V31.9032H157.259ZM181.407 24.6305C181.407 26.2167 181.106 27.5661 180.505 28.6788C179.908 29.7915 179.094 30.6414 178.062 31.2285C177.034 31.8109 175.879 32.1021 174.596 32.1021C173.303 32.1021 172.143 31.8085 171.116 31.2214C170.088 30.6343 169.276 29.7844 168.68 28.6717C168.083 27.559 167.785 26.2119 167.785 24.6305C167.785 23.0443 168.083 21.6949 168.68 20.5822C169.276 19.4695 170.088 18.622 171.116 18.0396C172.143 17.4525 173.303 17.1589 174.596 17.1589C175.879 17.1589 177.034 17.4525 178.062 18.0396C179.094 18.622 179.908 19.4695 180.505 20.5822C181.106 21.6949 181.407 23.0443 181.407 24.6305ZM178.289 24.6305C178.289 23.603 178.135 22.7366 177.827 22.0311C177.524 21.3256 177.096 20.7905 176.542 20.426C175.988 20.0614 175.339 19.8791 174.596 19.8791C173.852 19.8791 173.204 20.0614 172.65 20.426C172.096 20.7905 171.665 21.3256 171.357 22.0311C171.054 22.7366 170.903 23.603 170.903 24.6305C170.903 25.658 171.054 26.5244 171.357 27.2299C171.665 27.9354 172.096 28.4705 172.65 28.835C173.204 29.1996 173.852 29.3819 174.596 29.3819C175.339 29.3819 175.988 29.1996 176.542 28.835C177.096 28.4705 177.524 27.9354 177.827 27.2299C178.135 26.5244 178.289 25.658 178.289 24.6305ZM196.519 22.4501H193.408C193.351 22.0476 193.235 21.6902 193.06 21.3777C192.885 21.0604 192.66 20.7905 192.385 20.568C192.11 20.3455 191.793 20.175 191.433 20.0566C191.078 19.9383 190.692 19.8791 190.276 19.8791C189.523 19.8791 188.867 20.0661 188.308 20.4402C187.75 20.8095 187.316 21.3492 187.009 22.0595C186.701 22.765 186.547 23.622 186.547 24.6305C186.547 25.6674 186.701 26.5386 187.009 27.2441C187.321 27.9496 187.757 28.4823 188.316 28.8421C188.874 29.202 189.521 29.3819 190.254 29.3819C190.666 29.3819 191.048 29.3275 191.398 29.2186C191.753 29.1097 192.068 28.951 192.342 28.7427C192.617 28.5296 192.844 28.2716 193.024 27.9686C193.209 27.6655 193.337 27.3199 193.408 26.9316L196.519 26.9458C196.438 27.6135 196.237 28.2574 195.915 28.8777C195.598 29.4932 195.169 30.0448 194.629 30.5325C194.094 31.0154 193.455 31.399 192.712 31.6831C191.973 31.9624 191.137 32.1021 190.205 32.1021C188.907 32.1021 187.747 31.8085 186.725 31.2214C185.707 30.6343 184.902 29.7844 184.31 28.6717C183.723 27.559 183.429 26.2119 183.429 24.6305C183.429 23.0443 183.727 21.6949 184.324 20.5822C184.921 19.4695 185.73 18.622 186.753 18.0396C187.776 17.4525 188.926 17.1589 190.205 17.1589C191.048 17.1589 191.829 17.2773 192.548 17.514C193.273 17.7508 193.914 18.0964 194.473 18.551C195.032 19.0008 195.486 19.5524 195.837 20.2058C196.192 20.8592 196.419 21.6073 196.519 22.4501ZM200.958 31.9032H197.662L202.683 17.3578H206.646L211.661 31.9032H208.365L204.722 20.6816H204.608L200.958 31.9032ZM200.752 26.1859H208.536V28.5865H200.752V26.1859ZM211.08 19.8933V17.3578H223.026V19.8933H218.573V31.9032H215.533V19.8933H211.08ZM228.069 17.3578V31.9032H224.993V17.3578H228.069ZM243.965 24.6305C243.965 26.2167 243.665 27.5661 243.063 28.6788C242.467 29.7915 241.652 30.6414 240.62 31.2285C239.593 31.8109 238.437 32.1021 237.154 32.1021C235.862 32.1021 234.702 31.8085 233.674 31.2214C232.647 30.6343 231.835 29.7844 231.238 28.6717C230.642 27.559 230.343 26.2119 230.343 24.6305C230.343 23.0443 230.642 21.6949 231.238 20.5822C231.835 19.4695 232.647 18.622 233.674 18.0396C234.702 17.4525 235.862 17.1589 237.154 17.1589C238.437 17.1589 239.593 17.4525 240.62 18.0396C241.652 18.622 242.467 19.4695 243.063 20.5822C243.665 21.6949 243.965 23.0443 243.965 24.6305ZM240.847 24.6305C240.847 23.603 240.694 22.7366 240.386 22.0311C240.083 21.3256 239.654 20.7905 239.1 20.426C238.546 20.0614 237.898 19.8791 237.154 19.8791C236.411 19.8791 235.762 20.0614 235.208 20.426C234.654 20.7905 234.223 21.3256 233.916 22.0311C233.613 22.7366 233.461 23.603 233.461 24.6305C233.461 25.658 233.613 26.5244 233.916 27.2299C234.223 27.9354 234.654 28.4705 235.208 28.835C235.762 29.1996 236.411 29.3819 237.154 29.3819C237.898 29.3819 238.546 29.1996 239.1 28.835C239.654 28.4705 240.083 27.9354 240.386 27.2299C240.694 26.5244 240.847 25.658 240.847 24.6305ZM258.41 17.3578V31.9032H255.753L249.425 22.7484H249.319V31.9032H246.243V17.3578H248.942L255.221 26.5055H255.349V17.3578H258.41Z" fill="white"/>
</svg>
