<svg width="1600" height="50" viewBox="0 0 1600 50" fill="none" xmlns="http://www.w3.org/2000/svg">
<rect width="1600" height="50" fill="#04879A"/>
<path d="M17.2005 31.9032V17.3578H22.9391C24.0376 17.3578 24.9751 17.5543 25.7516 17.9473C26.5328 18.3355 27.1271 18.8871 27.5343 19.6021C27.9462 20.3123 28.1522 21.148 28.1522 22.1092C28.1522 23.0751 27.9438 23.9061 27.5272 24.6021C27.1105 25.2934 26.5068 25.8237 25.7161 26.193C24.9301 26.5623 23.9784 26.747 22.861 26.747H19.0186V24.2754H22.3638C22.9509 24.2754 23.4386 24.1949 23.8269 24.0339C24.2151 23.8729 24.504 23.6314 24.6934 23.3095C24.8875 22.9875 24.9845 22.5874 24.9845 22.1092C24.9845 21.6262 24.8875 21.219 24.6934 20.8876C24.504 20.5562 24.2128 20.3052 23.8198 20.1348C23.4315 19.9596 22.9415 19.872 22.3496 19.872H20.2757V31.9032H17.2005ZM25.0556 25.2839L28.6706 31.9032H25.2757L21.7388 25.2839H25.0556ZM30.3255 31.9032V17.3578H40.1266V19.8933H33.4007V23.3592H39.6223V25.8947H33.4007V29.3677H40.155V31.9032H30.3255ZM45.1994 17.3578L48.715 28.4089H48.85L52.3727 17.3578H55.7818L50.7676 31.9032H46.8045L41.7832 17.3578H45.1994ZM57.5325 31.9032V17.3578H67.3336V19.8933H60.6078V23.3592H66.8294V25.8947H60.6078V29.3677H67.362V31.9032H57.5325ZM81.9448 17.3578V31.9032H79.2885L72.9604 22.7484H72.8539V31.9032H69.7786V17.3578H72.4774L78.7559 26.5055H78.8837V17.3578H81.9448ZM93.47 17.3578H96.5453V26.8038C96.5453 27.8644 96.292 28.7924 95.7853 29.5879C95.2834 30.3833 94.5803 31.0036 93.676 31.4487C92.7716 31.889 91.7181 32.1092 90.5154 32.1092C89.3081 32.1092 88.2522 31.889 87.3478 31.4487C86.4435 31.0036 85.7403 30.3833 85.2385 29.5879C84.7366 28.7924 84.4856 27.8644 84.4856 26.8038V17.3578H87.5609V26.541C87.5609 27.095 87.6816 27.5874 87.9231 28.0183C88.1693 28.4492 88.515 28.7877 88.96 29.0339C89.4051 29.2801 89.9236 29.4032 90.5154 29.4032C91.112 29.4032 91.6305 29.2801 92.0708 29.0339C92.5159 28.7877 92.8592 28.4492 93.1007 28.0183C93.3469 27.5874 93.47 27.095 93.47 26.541V17.3578ZM99.0755 31.9032V17.3578H108.877V19.8933H102.151V23.3592H108.372V25.8947H102.151V29.3677H108.905V31.9032H99.0755ZM125.595 22.0595C125.496 21.7138 125.356 21.4084 125.176 21.1433C124.996 20.8734 124.776 20.6461 124.516 20.4615C124.26 20.2721 123.967 20.1277 123.635 20.0282C123.308 19.9288 122.946 19.8791 122.548 19.8791C121.805 19.8791 121.152 20.0637 120.588 20.4331C120.03 20.8024 119.594 21.3398 119.281 22.0453C118.969 22.746 118.813 23.603 118.813 24.6163C118.813 25.6296 118.967 26.4913 119.274 27.2015C119.582 27.9118 120.018 28.4539 120.581 28.8279C121.145 29.1973 121.81 29.3819 122.577 29.3819C123.273 29.3819 123.867 29.2588 124.36 29.0126C124.857 28.7617 125.235 28.4089 125.496 27.9544C125.761 27.4998 125.894 26.9624 125.894 26.3421L126.519 26.4345H122.769V24.1191H128.855V25.9515C128.855 27.2299 128.585 28.3284 128.046 29.247C127.506 30.1608 126.762 30.8663 125.816 31.3635C124.869 31.8559 123.784 32.1021 122.563 32.1021C121.199 32.1021 120.001 31.8014 118.969 31.2001C117.937 30.594 117.132 29.7347 116.554 28.622C115.981 27.5046 115.695 26.1788 115.695 24.6447C115.695 23.4657 115.865 22.4146 116.206 21.4913C116.552 20.5633 117.035 19.7773 117.655 19.1333C118.275 18.4894 118.997 17.9993 119.821 17.6632C120.645 17.327 121.538 17.1589 122.499 17.1589C123.323 17.1589 124.09 17.2796 124.8 17.5211C125.51 17.7579 126.14 18.094 126.689 18.5296C127.243 18.9653 127.695 19.4837 128.046 20.085C128.396 20.6816 128.621 21.3398 128.72 22.0595H125.595ZM131.165 31.9032V17.3578H136.904C138.002 17.3578 138.94 17.5543 139.716 17.9473C140.498 18.3355 141.092 18.8871 141.499 19.6021C141.911 20.3123 142.117 21.148 142.117 22.1092C142.117 23.0751 141.909 23.9061 141.492 24.6021C141.075 25.2934 140.472 25.8237 139.681 26.193C138.895 26.5623 137.943 26.747 136.826 26.747H132.983V24.2754H136.329C136.916 24.2754 137.403 24.1949 137.792 24.0339C138.18 23.8729 138.469 23.6314 138.658 23.3095C138.852 22.9875 138.949 22.5874 138.949 22.1092C138.949 21.6262 138.852 21.219 138.658 20.8876C138.469 20.5562 138.178 20.3052 137.785 20.1348C137.396 19.9596 136.906 19.872 136.314 19.872H134.241V31.9032H131.165ZM139.02 25.2839L142.635 31.9032H139.241L135.704 25.2839H139.02ZM157.657 24.6305C157.657 26.2167 157.356 27.5661 156.755 28.6788C156.158 29.7915 155.344 30.6414 154.312 31.2285C153.284 31.8109 152.129 32.1021 150.846 32.1021C149.553 32.1021 148.393 31.8085 147.366 31.2214C146.338 30.6343 145.526 29.7844 144.93 28.6717C144.333 27.559 144.035 26.2119 144.035 24.6305C144.035 23.0443 144.333 21.6949 144.93 20.5822C145.526 19.4695 146.338 18.622 147.366 18.0396C148.393 17.4525 149.553 17.1589 150.846 17.1589C152.129 17.1589 153.284 17.4525 154.312 18.0396C155.344 18.622 156.158 19.4695 156.755 20.5822C157.356 21.6949 157.657 23.0443 157.657 24.6305ZM154.539 24.6305C154.539 23.603 154.385 22.7366 154.077 22.0311C153.774 21.3256 153.346 20.7905 152.792 20.426C152.238 20.0614 151.589 19.8791 150.846 19.8791C150.102 19.8791 149.454 20.0614 148.9 20.426C148.346 20.7905 147.915 21.3256 147.607 22.0311C147.304 22.7366 147.153 23.603 147.153 24.6305C147.153 25.658 147.304 26.5244 147.607 27.2299C147.915 27.9354 148.346 28.4705 148.9 28.835C149.454 29.1996 150.102 29.3819 150.846 29.3819C151.589 29.3819 152.238 29.1996 152.792 28.835C153.346 28.4705 153.774 27.9354 154.077 27.2299C154.385 26.5244 154.539 25.658 154.539 24.6305ZM162.662 31.9032L158.5 17.3578H161.86L164.267 27.4643H164.388L167.044 17.3578H169.921L172.57 27.4856H172.698L175.105 17.3578H178.465L174.303 31.9032H171.306L168.536 22.3933H168.422L165.659 31.9032H162.662ZM179.557 19.8933V17.3578H191.503V19.8933H187.05V31.9032H184.01V19.8933H179.557ZM193.47 31.9032V17.3578H196.545V23.3592H202.788V17.3578H205.856V31.9032H202.788V25.8947H196.545V31.9032H193.47ZM215.528 31.9032H212.232L217.254 17.3578H221.217L226.231 31.9032H222.936L219.292 20.6816H219.178L215.528 31.9032ZM215.322 26.1859H223.106V28.5865H215.322V26.1859ZM240.148 17.3578V31.9032H237.492L231.164 22.7484H231.057V31.9032H227.982V17.3578H230.681L236.959 26.5055H237.087V17.3578H240.148ZM247.845 31.9032H242.689V17.3578H247.888C249.351 17.3578 250.61 17.649 251.666 18.2314C252.722 18.809 253.534 19.64 254.102 20.7243C254.675 21.8085 254.961 23.1059 254.961 24.6163C254.961 26.1314 254.675 27.4335 254.102 28.5225C253.534 29.6116 252.717 30.4473 251.652 31.0296C250.591 31.612 249.322 31.9032 247.845 31.9032ZM245.764 29.2683H247.717C248.626 29.2683 249.391 29.1073 250.011 28.7853C250.636 28.4586 251.105 27.9544 251.417 27.2725C251.735 26.586 251.893 25.7006 251.893 24.6163C251.893 23.5415 251.735 22.6632 251.417 21.9814C251.105 21.2995 250.639 20.7976 250.018 20.4757C249.398 20.1537 248.633 19.9927 247.724 19.9927H245.764V29.2683ZM261.868 31.9032V17.3578H267.607C268.71 17.3578 269.65 17.5685 270.427 17.9899C271.203 18.4065 271.795 18.9866 272.202 19.7299C272.614 20.4686 272.82 21.3208 272.82 22.2868C272.82 23.2527 272.612 24.1049 272.195 24.8436C271.778 25.5822 271.175 26.1575 270.384 26.5694C269.598 26.9814 268.646 27.1873 267.529 27.1873H263.871V24.7228H267.032C267.624 24.7228 268.111 24.621 268.495 24.4174C268.883 24.2091 269.172 23.9226 269.361 23.5581C269.555 23.1887 269.653 22.765 269.653 22.2868C269.653 21.8038 269.555 21.3824 269.361 21.0225C269.172 20.658 268.883 20.3762 268.495 20.1774C268.107 19.9738 267.614 19.872 267.018 19.872H264.944V31.9032H261.868ZM274.818 31.9032V17.3578H280.556C281.655 17.3578 282.592 17.5543 283.369 17.9473C284.15 18.3355 284.744 18.8871 285.151 19.6021C285.563 20.3123 285.769 21.148 285.769 22.1092C285.769 23.0751 285.561 23.9061 285.144 24.6021C284.728 25.2934 284.124 25.8237 283.333 26.193C282.547 26.5623 281.596 26.747 280.478 26.747H276.636V24.2754H279.981C280.568 24.2754 281.056 24.1949 281.444 24.0339C281.832 23.8729 282.121 23.6314 282.311 23.3095C282.505 22.9875 282.602 22.5874 282.602 22.1092C282.602 21.6262 282.505 21.219 282.311 20.8876C282.121 20.5562 281.83 20.3052 281.437 20.1348C281.049 19.9596 280.559 19.872 279.967 19.872H277.893V31.9032H274.818ZM282.673 25.2839L286.288 31.9032H282.893L279.356 25.2839H282.673ZM301.309 24.6305C301.309 26.2167 301.008 27.5661 300.407 28.6788C299.811 29.7915 298.996 30.6414 297.964 31.2285C296.936 31.8109 295.781 32.1021 294.498 32.1021C293.205 32.1021 292.045 31.8085 291.018 31.2214C289.99 30.6343 289.178 29.7844 288.582 28.6717C287.985 27.559 287.687 26.2119 287.687 24.6305C287.687 23.0443 287.985 21.6949 288.582 20.5822C289.178 19.4695 289.99 18.622 291.018 18.0396C292.045 17.4525 293.205 17.1589 294.498 17.1589C295.781 17.1589 296.936 17.4525 297.964 18.0396C298.996 18.622 299.811 19.4695 300.407 20.5822C301.008 21.6949 301.309 23.0443 301.309 24.6305ZM298.191 24.6305C298.191 23.603 298.037 22.7366 297.73 22.0311C297.427 21.3256 296.998 20.7905 296.444 20.426C295.89 20.0614 295.241 19.8791 294.498 19.8791C293.755 19.8791 293.106 20.0614 292.552 20.426C291.998 20.7905 291.567 21.3256 291.259 22.0311C290.956 22.7366 290.805 23.603 290.805 24.6305C290.805 25.658 290.956 26.5244 291.259 27.2299C291.567 27.9354 291.998 28.4705 292.552 28.835C293.106 29.1996 293.755 29.3819 294.498 29.3819C295.241 29.3819 295.89 29.1996 296.444 28.835C296.998 28.4705 297.427 27.9354 297.73 27.2299C298.037 26.5244 298.191 25.658 298.191 24.6305ZM303.587 31.9032V17.3578H313.218V19.8933H306.662V23.3592H312.579V25.8947H306.662V31.9032H303.587ZM318.362 17.3578V31.9032H315.286V17.3578H318.362ZM320.338 19.8933V17.3578H332.284V19.8933H327.831V31.9032H324.791V19.8933H320.338ZM334.981 31.9032H331.686L336.707 17.3578H340.67L345.684 31.9032H342.389L338.745 20.6816H338.632L334.981 31.9032ZM334.775 26.1859H342.559V28.5865H334.775V26.1859ZM347.435 31.9032V17.3578H353.259C354.329 17.3578 355.221 17.5164 355.936 17.8336C356.651 18.1509 357.189 18.5912 357.548 19.1546C357.908 19.7134 358.088 20.3573 358.088 21.0865C358.088 21.6546 357.975 22.1542 357.747 22.585C357.52 23.0112 357.208 23.3616 356.81 23.6362C356.417 23.9061 355.967 24.0978 355.46 24.2115V24.3535C356.014 24.3772 356.533 24.5334 357.016 24.8223C357.503 25.1111 357.899 25.5159 358.202 26.0368C358.505 26.5528 358.656 27.1684 358.656 27.8833C358.656 28.6551 358.465 29.344 358.081 29.9501C357.702 30.5514 357.141 31.0273 356.398 31.3777C355.655 31.728 354.738 31.9032 353.649 31.9032H347.435ZM350.51 29.389H353.017C353.874 29.389 354.499 29.2257 354.892 28.899C355.285 28.5675 355.482 28.1272 355.482 27.5779C355.482 27.1755 355.385 26.8204 355.191 26.5126C354.996 26.2048 354.719 25.9634 354.36 25.7882C354.004 25.613 353.581 25.5254 353.088 25.5254H350.51V29.389ZM350.51 23.4444H352.79C353.211 23.4444 353.585 23.371 353.912 23.2243C354.244 23.0727 354.504 22.8597 354.693 22.585C354.887 22.3104 354.985 21.9814 354.985 21.5978C354.985 21.0723 354.798 20.6485 354.423 20.3265C354.054 20.0046 353.529 19.8436 352.847 19.8436H350.51V23.4444ZM363.733 17.3578V31.9032H360.657V17.3578H363.733ZM366.263 31.9032V17.3578H369.338V29.3677H375.574V31.9032H366.263ZM380.686 17.3578V31.9032H377.611V17.3578H380.686ZM382.662 19.8933V17.3578H394.608V19.8933H390.155V31.9032H387.115V19.8933H382.662ZM395.723 17.3578H399.168L402.485 23.622H402.627L405.943 17.3578H409.388L404.083 26.7612V31.9032H401.029V26.7612L395.723 17.3578Z" fill="white"/>
</svg>
