<svg width="1600" height="50" viewBox="0 0 1600 50" fill="none" xmlns="http://www.w3.org/2000/svg">
<rect width="1600" height="50" fill="#04879A"/>
<path d="M17.2005 17.3578H20.9931L24.9987 27.1305H25.1692L29.1749 17.3578H32.9675V31.9032H29.9845V22.4359H29.8638L26.0996 31.8322H24.0684L20.3041 22.4004H20.1834V31.9032H17.2005V17.3578ZM38.0083 31.9032H34.7129L39.7342 17.3578H43.6973L48.7115 31.9032H45.416L41.7725 20.6816H41.6589L38.0083 31.9032ZM37.8024 26.1859H45.5865V28.5865H37.8024V26.1859ZM50.4622 31.9032V17.3578H56.2008C57.2993 17.3578 58.2368 17.5543 59.0133 17.9473C59.7946 18.3355 60.3888 18.8871 60.796 19.6021C61.2079 20.3123 61.4139 21.148 61.4139 22.1092C61.4139 23.0751 61.2055 23.9061 60.7889 24.6021C60.3722 25.2934 59.7685 25.8237 58.9778 26.193C58.1918 26.5623 57.2401 26.747 56.1227 26.747H52.2804V24.2754H55.6255C56.2126 24.2754 56.7003 24.1949 57.0886 24.0339C57.4769 23.8729 57.7657 23.6314 57.9551 23.3095C58.1492 22.9875 58.2463 22.5874 58.2463 22.1092C58.2463 21.6262 58.1492 21.219 57.9551 20.8876C57.7657 20.5562 57.4745 20.3052 57.0815 20.1348C56.6932 19.9596 56.2032 19.872 55.6113 19.872H53.5375V31.9032H50.4622ZM58.3173 25.2839L61.9323 31.9032H58.5375L55.0005 25.2839H58.3173ZM63.5872 31.9032V17.3578H66.6625V23.7711H66.8542L72.0886 17.3578H75.7747L70.3769 23.8706L75.8386 31.9032H72.1596L68.1752 25.9231L66.6625 27.7697V31.9032H63.5872ZM77.3762 31.9032V17.3578H87.1774V19.8933H80.4515V23.3592H86.6731V25.8947H80.4515V29.3677H87.2058V31.9032H77.3762ZM89.0684 19.8933V17.3578H101.014V19.8933H96.5612V31.9032H93.5215V19.8933H89.0684ZM112.014 32.1163C111.01 32.1163 110.144 31.9364 109.415 31.5765C108.685 31.2167 108.124 30.729 107.731 30.1135C107.343 29.4932 107.149 28.8019 107.149 28.0396C107.149 27.4714 107.263 26.9671 107.49 26.5268C107.717 26.0865 108.034 25.6816 108.442 25.3123C108.849 24.9383 109.322 24.5666 109.862 24.1973L112.682 22.3436C113.046 22.1116 113.314 21.8677 113.484 21.612C113.655 21.3516 113.74 21.0699 113.74 20.7669C113.74 20.478 113.624 20.2105 113.392 19.9643C113.16 19.7181 112.831 19.5974 112.405 19.6021C112.121 19.6021 111.874 19.666 111.666 19.7938C111.458 19.917 111.294 20.0803 111.176 20.2839C111.062 20.4828 111.005 20.7053 111.005 20.9515C111.005 21.2545 111.091 21.5623 111.261 21.8748C111.432 22.1873 111.659 22.5188 111.943 22.8691C112.227 23.2148 112.537 23.5888 112.873 23.9913L119.77 31.9032H116.616L110.863 25.497C110.485 25.0661 110.106 24.6163 109.727 24.1475C109.353 23.6741 109.041 23.1722 108.79 22.6419C108.539 22.1068 108.413 21.5268 108.413 20.9018C108.413 20.1963 108.577 19.5618 108.903 18.9984C109.235 18.4349 109.699 17.9899 110.295 17.6632C110.892 17.3317 111.588 17.166 112.383 17.166C113.16 17.166 113.83 17.3246 114.393 17.6419C114.961 17.9544 115.397 18.371 115.7 18.8919C116.008 19.408 116.162 19.9761 116.162 20.5964C116.162 21.283 115.991 21.9056 115.65 22.4643C115.314 23.0183 114.841 23.5154 114.23 23.9558L111.261 26.0936C110.859 26.3871 110.56 26.6878 110.366 26.9956C110.177 27.2986 110.082 27.5898 110.082 27.8691C110.082 28.2148 110.167 28.5249 110.338 28.7995C110.508 29.0742 110.75 29.292 111.062 29.4529C111.375 29.6092 111.742 29.6873 112.163 29.6873C112.675 29.6873 113.179 29.5713 113.676 29.3393C114.178 29.1026 114.632 28.7688 115.04 28.3379C115.452 27.9023 115.781 27.3862 116.027 26.7896C116.273 26.193 116.396 25.5325 116.396 24.8081H118.903C118.903 25.6982 118.806 26.5008 118.612 27.2157C118.418 27.926 118.148 28.5462 117.802 29.0765C117.457 29.6021 117.061 30.033 116.616 30.3691C116.474 30.4591 116.337 30.5443 116.204 30.6248C116.072 30.7053 115.934 30.7905 115.792 30.8805C115.253 31.3161 114.649 31.631 113.981 31.8251C113.318 32.0192 112.663 32.1163 112.014 32.1163ZM133.607 21.541C133.55 20.9681 133.306 20.523 132.875 20.2058C132.444 19.8885 131.86 19.7299 131.121 19.7299C130.619 19.7299 130.195 19.801 129.85 19.943C129.504 20.0803 129.239 20.2721 129.054 20.5183C128.874 20.7645 128.784 21.0438 128.784 21.3563C128.775 21.6168 128.829 21.844 128.948 22.0382C129.071 22.2323 129.239 22.4004 129.452 22.5424C129.665 22.6797 129.911 22.8005 130.191 22.9046C130.47 23.0041 130.768 23.0893 131.085 23.1603L132.392 23.4728C133.027 23.6149 133.609 23.8043 134.139 24.041C134.67 24.2778 135.129 24.5689 135.517 24.9146C135.905 25.2602 136.206 25.6674 136.419 26.1362C136.637 26.6049 136.748 27.1423 136.753 27.7484C136.748 28.6385 136.521 29.4103 136.071 30.0637C135.626 30.7124 134.982 31.2167 134.139 31.5765C133.301 31.9316 132.29 32.1092 131.107 32.1092C129.932 32.1092 128.91 31.9293 128.039 31.5694C127.172 31.2096 126.495 30.6769 126.007 29.9714C125.524 29.2612 125.271 28.3829 125.247 27.3365H128.223C128.256 27.8242 128.396 28.2313 128.642 28.5581C128.893 28.88 129.227 29.1239 129.644 29.2896C130.065 29.4506 130.541 29.5311 131.071 29.5311C131.592 29.5311 132.044 29.4553 132.428 29.3038C132.816 29.1523 133.117 28.9416 133.33 28.6717C133.543 28.4018 133.649 28.0917 133.649 27.7413C133.649 27.4146 133.552 27.14 133.358 26.9174C133.169 26.6949 132.889 26.5055 132.52 26.3492C132.155 26.193 131.708 26.051 131.178 25.9231L129.594 25.5254C128.368 25.2271 127.399 24.7607 126.689 24.1262C125.979 23.4918 125.626 22.6371 125.631 21.5623C125.626 20.6816 125.86 19.9122 126.334 19.2541C126.812 18.5959 127.468 18.0822 128.301 17.7129C129.135 17.3436 130.082 17.1589 131.142 17.1589C132.222 17.1589 133.164 17.3436 133.969 17.7129C134.779 18.0822 135.408 18.5959 135.858 19.2541C136.308 19.9122 136.54 20.6745 136.554 21.541H133.607ZM138.822 31.9032V17.3578H148.623V19.8933H141.897V23.3592H148.118V25.8947H141.897V29.3677H148.651V31.9032H138.822ZM163.901 22.4501H160.791C160.734 22.0476 160.618 21.6902 160.443 21.3777C160.267 21.0604 160.043 20.7905 159.768 20.568C159.493 20.3455 159.176 20.175 158.816 20.0566C158.461 19.9383 158.075 19.8791 157.659 19.8791C156.906 19.8791 156.25 20.0661 155.691 20.4402C155.133 20.8095 154.699 21.3492 154.392 22.0595C154.084 22.765 153.93 23.622 153.93 24.6305C153.93 25.6674 154.084 26.5386 154.392 27.2441C154.704 27.9496 155.14 28.4823 155.698 28.8421C156.257 29.202 156.903 29.3819 157.637 29.3819C158.049 29.3819 158.43 29.3275 158.781 29.2186C159.136 29.1097 159.451 28.951 159.725 28.7427C160 28.5296 160.227 28.2716 160.407 27.9686C160.592 27.6655 160.72 27.3199 160.791 26.9316L163.901 26.9458C163.821 27.6135 163.62 28.2574 163.298 28.8777C162.981 29.4932 162.552 30.0448 162.012 30.5325C161.477 31.0154 160.838 31.399 160.095 31.6831C159.356 31.9624 158.52 32.1021 157.588 32.1021C156.29 32.1021 155.13 31.8085 154.107 31.2214C153.089 30.6343 152.284 29.7844 151.693 28.6717C151.106 27.559 150.812 26.2119 150.812 24.6305C150.812 23.0443 151.11 21.6949 151.707 20.5822C152.303 19.4695 153.113 18.622 154.136 18.0396C155.159 17.4525 156.309 17.1589 157.588 17.1589C158.43 17.1589 159.212 17.2773 159.931 17.514C160.656 17.7508 161.297 18.0964 161.856 18.551C162.415 19.0008 162.869 19.5524 163.22 20.2058C163.575 20.8592 163.802 21.6073 163.901 22.4501ZM165.553 19.8933V17.3578H177.499V19.8933H173.046V31.9032H170.006V19.8933H165.553ZM192.168 24.6305C192.168 26.2167 191.868 27.5661 191.267 28.6788C190.67 29.7915 189.856 30.6414 188.823 31.2285C187.796 31.8109 186.641 32.1021 185.357 32.1021C184.065 32.1021 182.905 31.8085 181.877 31.2214C180.85 30.6343 180.038 29.7844 179.441 28.6717C178.845 27.559 178.546 26.2119 178.546 24.6305C178.546 23.0443 178.845 21.6949 179.441 20.5822C180.038 19.4695 180.85 18.622 181.877 18.0396C182.905 17.4525 184.065 17.1589 185.357 17.1589C186.641 17.1589 187.796 17.4525 188.823 18.0396C189.856 18.622 190.67 19.4695 191.267 20.5822C191.868 21.6949 192.168 23.0443 192.168 24.6305ZM189.051 24.6305C189.051 23.603 188.897 22.7366 188.589 22.0311C188.286 21.3256 187.857 20.7905 187.303 20.426C186.749 20.0614 186.101 19.8791 185.357 19.8791C184.614 19.8791 183.965 20.0614 183.411 20.426C182.857 20.7905 182.427 21.3256 182.119 22.0311C181.816 22.7366 181.664 23.603 181.664 24.6305C181.664 25.658 181.816 26.5244 182.119 27.2299C182.427 27.9354 182.857 28.4705 183.411 28.835C183.965 29.1996 184.614 29.3819 185.357 29.3819C186.101 29.3819 186.749 29.1996 187.303 28.835C187.857 28.4705 188.286 27.9354 188.589 27.2299C188.897 26.5244 189.051 25.658 189.051 24.6305ZM194.447 31.9032V17.3578H200.185C201.284 17.3578 202.221 17.5543 202.998 17.9473C203.779 18.3355 204.373 18.8871 204.78 19.6021C205.192 20.3123 205.398 21.148 205.398 22.1092C205.398 23.0751 205.19 23.9061 204.773 24.6021C204.357 25.2934 203.753 25.8237 202.962 26.193C202.176 26.5623 201.224 26.747 200.107 26.747H196.265V24.2754H199.61C200.197 24.2754 200.685 24.1949 201.073 24.0339C201.461 23.8729 201.75 23.6314 201.939 23.3095C202.134 22.9875 202.231 22.5874 202.231 22.1092C202.231 21.6262 202.134 21.219 201.939 20.8876C201.75 20.5562 201.459 20.3052 201.066 20.1348C200.678 19.9596 200.188 19.872 199.596 19.872H197.522V31.9032H194.447ZM202.302 25.2839L205.917 31.9032H202.522L198.985 25.2839H202.302ZM217.357 31.9032H212.2V17.3578H217.399C218.862 17.3578 220.122 17.649 221.178 18.2313C222.234 18.809 223.046 19.64 223.614 20.7242C224.187 21.8085 224.473 23.1059 224.473 24.6163C224.473 26.1314 224.187 27.4335 223.614 28.5225C223.046 29.6116 222.229 30.4473 221.164 31.0296C220.103 31.612 218.834 31.9032 217.357 31.9032ZM215.276 29.2683H217.229C218.138 29.2683 218.903 29.1073 219.523 28.7853C220.148 28.4586 220.617 27.9544 220.929 27.2725C221.246 26.586 221.405 25.7006 221.405 24.6163C221.405 23.5415 221.246 22.6632 220.929 21.9813C220.617 21.2995 220.15 20.7976 219.53 20.4757C218.91 20.1537 218.145 19.9927 217.236 19.9927H215.276V29.2683ZM225.02 17.3578H228.465L231.781 23.622H231.923L235.24 17.3578H238.685L233.379 26.7612V31.9032H230.325V26.7612L225.02 17.3578ZM252.531 17.3578V31.9032H249.874L243.546 22.7484H243.44V31.9032H240.365V17.3578H243.063L249.342 26.5055H249.47V17.3578H252.531ZM257.579 31.9032H254.283L259.305 17.3578H263.268L268.282 31.9032H264.986L261.343 20.6816H261.229L257.579 31.9032ZM257.373 26.1859H265.157V28.5865H257.373V26.1859ZM270.032 17.3578H273.825L277.831 27.1305H278.001L282.007 17.3578H285.8V31.9032H282.817V22.4359H282.696L278.932 31.8322H276.9L273.136 22.4004H273.015V31.9032H270.032V17.3578ZM291.409 17.3578V31.9032H288.333V17.3578H291.409ZM306.773 22.4501H303.662C303.605 22.0476 303.489 21.6902 303.314 21.3777C303.139 21.0604 302.914 20.7905 302.639 20.568C302.364 20.3455 302.047 20.175 301.687 20.0566C301.332 19.9383 300.946 19.8791 300.53 19.8791C299.777 19.8791 299.121 20.0661 298.562 20.4402C298.004 20.8095 297.57 21.3492 297.263 22.0595C296.955 22.765 296.801 23.622 296.801 24.6305C296.801 25.6674 296.955 26.5386 297.263 27.2441C297.575 27.9496 298.011 28.4823 298.569 28.8421C299.128 29.202 299.774 29.3819 300.508 29.3819C300.92 29.3819 301.301 29.3275 301.652 29.2186C302.007 29.1097 302.322 28.951 302.596 28.7427C302.871 28.5296 303.098 28.2716 303.278 27.9686C303.463 27.6655 303.591 27.3199 303.662 26.9316L306.773 26.9458C306.692 27.6135 306.491 28.2574 306.169 28.8777C305.852 29.4932 305.423 30.0448 304.883 30.5325C304.348 31.0154 303.709 31.399 302.966 31.6831C302.227 31.9624 301.391 32.1021 300.459 32.1021C299.161 32.1021 298.001 31.8085 296.979 31.2214C295.961 30.6343 295.156 29.7844 294.564 28.6717C293.977 27.559 293.683 26.2119 293.683 24.6305C293.683 23.0443 293.981 21.6949 294.578 20.5822C295.175 19.4695 295.984 18.622 297.007 18.0396C298.03 17.4525 299.18 17.1589 300.459 17.1589C301.301 17.1589 302.083 17.2773 302.802 17.514C303.527 17.7508 304.168 18.0964 304.727 18.551C305.286 19.0008 305.74 19.5524 306.091 20.2058C306.446 20.8592 306.673 21.6073 306.773 22.4501ZM316.868 21.541C316.812 20.9681 316.568 20.523 316.137 20.2058C315.706 19.8885 315.121 19.7299 314.383 19.7299C313.881 19.7299 313.457 19.801 313.111 19.943C312.766 20.0803 312.501 20.2721 312.316 20.5183C312.136 20.7645 312.046 21.0438 312.046 21.3563C312.037 21.6168 312.091 21.844 312.209 22.0382C312.332 22.2323 312.501 22.4004 312.714 22.5424C312.927 22.6797 313.173 22.8005 313.452 22.9046C313.732 23.0041 314.03 23.0893 314.347 23.1603L315.654 23.4728C316.288 23.6149 316.871 23.8043 317.401 24.041C317.931 24.2778 318.391 24.5689 318.779 24.9146C319.167 25.2602 319.468 25.6674 319.681 26.1362C319.899 26.6049 320.01 27.1423 320.015 27.7484C320.01 28.6385 319.783 29.4103 319.333 30.0637C318.888 30.7124 318.244 31.2167 317.401 31.5765C316.563 31.9316 315.552 32.1092 314.368 32.1092C313.194 32.1092 312.171 31.9293 311.3 31.5694C310.434 31.2096 309.757 30.6769 309.269 29.9714C308.786 29.2612 308.533 28.3829 308.509 27.3365H311.485C311.518 27.8242 311.658 28.2313 311.904 28.5581C312.155 28.88 312.489 29.1239 312.905 29.2896C313.327 29.4506 313.803 29.5311 314.333 29.5311C314.854 29.5311 315.306 29.4553 315.689 29.3038C316.078 29.1523 316.378 28.9416 316.591 28.6717C316.805 28.4018 316.911 28.0917 316.911 27.7413C316.911 27.4146 316.814 27.14 316.62 26.9174C316.43 26.6949 316.151 26.5055 315.782 26.3492C315.417 26.193 314.97 26.051 314.439 25.9231L312.856 25.5254C311.629 25.2271 310.661 24.7607 309.951 24.1262C309.241 23.4918 308.888 22.6371 308.893 21.5623C308.888 20.6816 309.122 19.9122 309.596 19.2541C310.074 18.5959 310.73 18.0822 311.563 17.7129C312.396 17.3436 313.343 17.1589 314.404 17.1589C315.483 17.1589 316.426 17.3436 317.231 17.7129C318.04 18.0822 318.67 18.5959 319.12 19.2541C319.57 19.9122 319.802 20.6745 319.816 21.541H316.868Z" fill="white"/>
</svg>
