<svg width="1600" height="50" viewBox="0 0 1600 50" fill="none" xmlns="http://www.w3.org/2000/svg">
<rect width="1600" height="50" fill="#04879A"/>
<path d="M25.0911 21.541C25.0343 20.9681 24.7904 20.523 24.3595 20.2058C23.9287 19.8886 23.3439 19.7299 22.6053 19.7299C22.1034 19.7299 21.6796 19.801 21.334 19.943C20.9883 20.0803 20.7232 20.2721 20.5385 20.5183C20.3586 20.7645 20.2686 21.0439 20.2686 21.3564C20.2592 21.6168 20.3136 21.844 20.432 22.0382C20.5551 22.2323 20.7232 22.4004 20.9362 22.5424C21.1493 22.6797 21.3955 22.8005 21.6749 22.9046C21.9542 23.0041 22.2525 23.0893 22.5698 23.1603L23.8766 23.4728C24.5111 23.6149 25.0934 23.8043 25.6237 24.041C26.1541 24.2778 26.6133 24.5689 27.0016 24.9146C27.3898 25.2602 27.6905 25.6674 27.9036 26.1362C28.1214 26.6049 28.2327 27.1423 28.2374 27.7484C28.2327 28.6386 28.0054 29.4103 27.5556 30.0637C27.1105 30.7124 26.4666 31.2167 25.6237 31.5765C24.7857 31.9316 23.7748 32.1092 22.5911 32.1092C21.4168 32.1092 20.3941 31.9293 19.5229 31.5694C18.6564 31.2096 17.9793 30.6769 17.4916 29.9714C17.0087 29.2612 16.7554 28.3829 16.7317 27.3365H19.7076C19.7407 27.8242 19.8804 28.2314 20.1266 28.5581C20.3775 28.88 20.7113 29.1239 21.128 29.2896C21.5494 29.4506 22.0253 29.5311 22.5556 29.5311C23.0764 29.5311 23.5286 29.4553 23.9121 29.3038C24.3004 29.1523 24.601 28.9416 24.8141 28.6717C25.0272 28.4018 25.1337 28.0917 25.1337 27.7413C25.1337 27.4146 25.0366 27.14 24.8425 26.9174C24.6531 26.6949 24.3737 26.5055 24.0044 26.3493C23.6398 26.193 23.1924 26.051 22.6621 25.9231L21.0783 25.5254C19.852 25.2271 18.8837 24.7607 18.1735 24.1262C17.4632 23.4918 17.1105 22.6371 17.1152 21.5623C17.1105 20.6816 17.3449 19.9122 17.8184 19.2541C18.2966 18.5959 18.9523 18.0822 19.7857 17.7129C20.619 17.3436 21.566 17.1589 22.6266 17.1589C23.7061 17.1589 24.6484 17.3436 25.4533 17.7129C26.263 18.0822 26.8927 18.5959 27.3425 19.2541C27.7923 19.9122 28.0243 20.6745 28.0385 21.541H25.0911ZM43.1397 22.4501H40.0289C39.9721 22.0476 39.8561 21.6902 39.6809 21.3777C39.5057 21.0604 39.2808 20.7905 39.0062 20.568C38.7316 20.3455 38.4144 20.175 38.0545 20.0566C37.6994 19.9383 37.3135 19.8791 36.8968 19.8791C36.144 19.8791 35.4882 20.0661 34.9295 20.4402C34.3708 20.8095 33.9376 21.3493 33.6298 22.0595C33.322 22.765 33.1681 23.622 33.1681 24.6305C33.1681 25.6674 33.322 26.5386 33.6298 27.2441C33.9423 27.9496 34.3779 28.4823 34.9366 28.8421C35.4953 29.202 36.1416 29.3819 36.8755 29.3819C37.2875 29.3819 37.6686 29.3275 38.019 29.2186C38.3741 29.1097 38.689 28.9511 38.9636 28.7427C39.2382 28.5296 39.4655 28.2716 39.6454 27.9686C39.8301 27.6655 39.9579 27.3199 40.0289 26.9316L43.1397 26.9458C43.0592 27.6135 42.858 28.2574 42.536 28.8777C42.2188 29.4932 41.7903 30.0448 41.2505 30.5325C40.7155 31.0154 40.0763 31.399 39.3329 31.6831C38.5943 31.9624 37.7586 32.1021 36.8258 32.1021C35.5285 32.1021 34.3684 31.8085 33.3457 31.2214C32.3277 30.6343 31.5228 29.7844 30.9309 28.6717C30.3438 27.559 30.0502 26.2119 30.0502 24.6305C30.0502 23.0443 30.3485 21.6949 30.9451 20.5822C31.5417 19.4695 32.3514 18.622 33.3741 18.0396C34.3968 17.4525 35.5474 17.1589 36.8258 17.1589C37.6686 17.1589 38.4499 17.2773 39.1696 17.514C39.894 17.7508 40.5356 18.0964 41.0943 18.551C41.653 19.0008 42.1075 19.5524 42.4579 20.2058C42.813 20.8592 43.0403 21.6073 43.1397 22.4501ZM47.5786 31.9032H44.2832L49.3045 17.3578H53.2676L58.2818 31.9032H54.9863L51.3429 20.6816H51.2292L47.5786 31.9032ZM47.3727 26.1859H55.1568V28.5865H47.3727V26.1859ZM60.0325 31.9032V17.3578H63.1078V29.3677H69.3436V31.9032H60.0325ZM71.3801 31.9032V17.3578H81.1813V19.8933H74.4554V23.3592H80.677V25.8947H74.4554V29.3677H81.2097V31.9032H71.3801ZM92.6586 32.1163C91.6548 32.1163 90.7883 31.9364 90.0591 31.5765C89.33 31.2167 88.7689 30.729 88.3759 30.1135C87.9876 29.4932 87.7935 28.8019 87.7935 28.0396C87.7935 27.4714 87.9071 26.9671 88.1344 26.5268C88.3617 26.0865 88.6789 25.6816 89.0861 25.3123C89.4933 24.9383 89.9668 24.5666 90.5066 24.1973L93.3262 22.3436C93.6907 22.1116 93.9583 21.8677 94.1287 21.612C94.2992 21.3516 94.3844 21.0699 94.3844 20.7669C94.3844 20.478 94.2684 20.2105 94.0364 19.9643C93.8044 19.7181 93.4753 19.5974 93.0492 19.6021C92.7651 19.6021 92.5189 19.666 92.3105 19.7939C92.1022 19.917 91.9389 20.0803 91.8205 20.2839C91.7068 20.4828 91.65 20.7053 91.65 20.9515C91.65 21.2546 91.7353 21.5623 91.9057 21.8748C92.0762 22.1873 92.3034 22.5188 92.5875 22.8691C92.8716 23.2148 93.1818 23.5888 93.5179 23.9913L100.414 31.9032H97.2608L91.508 25.497C91.1292 25.0661 90.7504 24.6163 90.3716 24.1475C89.9976 23.6741 89.6851 23.1722 89.4341 22.6419C89.1832 22.1068 89.0577 21.5268 89.0577 20.9018C89.0577 20.1963 89.221 19.5618 89.5478 18.9984C89.8792 18.435 90.3432 17.9899 90.9398 17.6632C91.5364 17.3317 92.2324 17.166 93.0279 17.166C93.8044 17.166 94.4744 17.3246 95.0378 17.6419C95.606 17.9544 96.0416 18.371 96.3446 18.8919C96.6524 19.408 96.8063 19.9761 96.8063 20.5964C96.8063 21.283 96.6358 21.9056 96.2949 22.4643C95.9587 23.0183 95.4853 23.5154 94.8745 23.9558L91.9057 26.0936C91.5032 26.3871 91.205 26.6878 91.0108 26.9956C90.8214 27.2986 90.7267 27.5898 90.7267 27.8691C90.7267 28.2148 90.812 28.5249 90.9824 28.7995C91.1529 29.0742 91.3943 29.292 91.7068 29.4529C92.0193 29.6092 92.3863 29.6873 92.8077 29.6873C93.3191 29.6873 93.8233 29.5713 94.3205 29.3393C94.8224 29.1026 95.2769 28.7688 95.6841 28.3379C96.0961 27.9023 96.4251 27.3862 96.6713 26.7896C96.9175 26.193 97.0407 25.5325 97.0407 24.8081H99.5478C99.5478 25.6982 99.4507 26.5008 99.2566 27.2157C99.0624 27.926 98.7925 28.5462 98.4469 29.0765C98.1013 29.6021 97.7059 30.033 97.2608 30.3691C97.1188 30.4591 96.9815 30.5443 96.8489 30.6248C96.7163 30.7053 96.579 30.7905 96.437 30.8805C95.8972 31.3161 95.2935 31.631 94.6259 31.8251C93.963 32.0192 93.3072 32.1163 92.6586 32.1163ZM116.005 22.0595C115.906 21.7138 115.766 21.4084 115.586 21.1433C115.407 20.8734 115.186 20.6461 114.926 20.4615C114.67 20.2721 114.377 20.1277 114.045 20.0282C113.719 19.9288 113.356 19.8791 112.959 19.8791C112.215 19.8791 111.562 20.0637 110.998 20.4331C110.44 20.8024 110.004 21.3398 109.692 22.0453C109.379 22.746 109.223 23.603 109.223 24.6163C109.223 25.6296 109.377 26.4913 109.684 27.2015C109.992 27.9118 110.428 28.4539 110.991 28.8279C111.555 29.1973 112.22 29.3819 112.987 29.3819C113.683 29.3819 114.277 29.2588 114.77 29.0126C115.267 28.7617 115.646 28.4089 115.906 27.9544C116.171 27.4998 116.304 26.9624 116.304 26.3421L116.929 26.4345H113.179V24.1191H119.265V25.9515C119.265 27.2299 118.996 28.3284 118.456 29.247C117.916 30.1608 117.173 30.8663 116.226 31.3635C115.279 31.8559 114.194 32.1021 112.973 32.1021C111.609 32.1021 110.411 31.8014 109.379 31.2001C108.347 30.594 107.542 29.7347 106.964 28.622C106.391 27.5046 106.105 26.1788 106.105 24.6447C106.105 23.4657 106.275 22.4146 106.616 21.4913C106.962 20.5633 107.445 19.7773 108.065 19.1333C108.685 18.4894 109.407 17.9993 110.231 17.6632C111.055 17.327 111.948 17.1589 112.909 17.1589C113.733 17.1589 114.5 17.2796 115.21 17.5211C115.92 17.7579 116.55 18.094 117.099 18.5296C117.653 18.9653 118.105 19.4837 118.456 20.085C118.806 20.6816 119.031 21.3398 119.13 22.0595H116.005ZM121.575 31.9032V17.3578H127.314C128.413 17.3578 129.35 17.5543 130.127 17.9473C130.908 18.3355 131.502 18.8871 131.909 19.6021C132.321 20.3123 132.527 21.148 132.527 22.1092C132.527 23.0751 132.319 23.9061 131.902 24.6021C131.485 25.2934 130.882 25.8237 130.091 26.193C129.305 26.5623 128.353 26.747 127.236 26.747H123.394V24.2754H126.739C127.326 24.2754 127.814 24.1949 128.202 24.0339C128.59 23.8729 128.879 23.6314 129.068 23.3095C129.262 22.9875 129.36 22.5874 129.36 22.1092C129.36 21.6262 129.262 21.219 129.068 20.8876C128.879 20.5562 128.588 20.3052 128.195 20.1348C127.807 19.9596 127.316 19.872 126.725 19.872H124.651V31.9032H121.575ZM129.431 25.2839L133.046 31.9032H129.651L126.114 25.2839H129.431ZM148.067 24.6305C148.067 26.2167 147.766 27.5661 147.165 28.6788C146.568 29.7915 145.754 30.6414 144.722 31.2285C143.694 31.8109 142.539 32.1021 141.256 32.1021C139.963 32.1021 138.803 31.8085 137.776 31.2214C136.748 30.6343 135.936 29.7844 135.34 28.6717C134.743 27.559 134.445 26.2119 134.445 24.6305C134.445 23.0443 134.743 21.6949 135.34 20.5822C135.936 19.4695 136.748 18.622 137.776 18.0396C138.803 17.4525 139.963 17.1589 141.256 17.1589C142.539 17.1589 143.694 17.4525 144.722 18.0396C145.754 18.622 146.568 19.4695 147.165 20.5822C147.766 21.6949 148.067 23.0443 148.067 24.6305ZM144.949 24.6305C144.949 23.603 144.795 22.7366 144.487 22.0311C144.184 21.3256 143.756 20.7905 143.202 20.426C142.648 20.0614 141.999 19.8791 141.256 19.8791C140.512 19.8791 139.864 20.0614 139.31 20.426C138.756 20.7905 138.325 21.3256 138.017 22.0311C137.714 22.7366 137.563 23.603 137.563 24.6305C137.563 25.658 137.714 26.5244 138.017 27.2299C138.325 27.9354 138.756 28.4705 139.31 28.835C139.864 29.1996 140.512 29.3819 141.256 29.3819C141.999 29.3819 142.648 29.1996 143.202 28.835C143.756 28.4705 144.184 27.9354 144.487 27.2299C144.795 26.5244 144.949 25.658 144.949 24.6305ZM153.072 31.9032L148.91 17.3578H152.27L154.677 27.4643H154.798L157.454 17.3578H160.331L162.98 27.4856H163.108L165.515 17.3578H168.875L164.713 31.9032H161.716L158.946 22.3933H158.832L156.069 31.9032H153.072ZM169.967 19.8933V17.3578H181.913V19.8933H177.46V31.9032H174.42V19.8933H169.967ZM183.88 31.9032V17.3578H186.955V23.3592H193.198V17.3578H196.267V31.9032H193.198V25.8947H186.955V31.9032H183.88Z" fill="white"/>
</svg>
