<svg width="1600" height="50" viewBox="0 0 1600 50" fill="none" xmlns="http://www.w3.org/2000/svg">
<rect width="1600" height="50" fill="#9A048B"/>
<path d="M17.2005 32V17.4545H22.9391C24.0376 17.4545 24.9751 17.651 25.7516 18.044C26.5328 18.4323 27.1271 18.9839 27.5343 19.6989C27.9462 20.4091 28.1522 21.2448 28.1522 22.206C28.1522 23.1719 27.9438 24.0028 27.5272 24.6989C27.1105 25.3902 26.5068 25.9205 25.7161 26.2898C24.9301 26.6591 23.9784 26.8438 22.861 26.8438H19.0186V24.3722H22.3638C22.9509 24.3722 23.4386 24.2917 23.8269 24.1307C24.2151 23.9697 24.504 23.7282 24.6934 23.4062C24.8875 23.0843 24.9845 22.6842 24.9845 22.206C24.9845 21.723 24.8875 21.3158 24.6934 20.9844C24.504 20.6529 24.2128 20.402 23.8198 20.2315C23.4315 20.0563 22.9415 19.9688 22.3496 19.9688H20.2757V32H17.2005ZM25.0556 25.3807L28.6706 32H25.2757L21.7388 25.3807H25.0556ZM30.3255 32V17.4545H40.1266V19.9901H33.4007V23.456H39.6223V25.9915H33.4007V29.4645H40.155V32H30.3255ZM45.1994 17.4545L48.715 28.5057H48.85L52.3727 17.4545H55.7818L50.7676 32H46.8045L41.7832 17.4545H45.1994ZM57.5325 32V17.4545H67.3336V19.9901H60.6078V23.456H66.8294V25.9915H60.6078V29.4645H67.362V32H57.5325ZM81.9448 17.4545V32H79.2885L72.9604 22.8452H72.8539V32H69.7786V17.4545H72.4774L78.7559 26.6023H78.8837V17.4545H81.9448ZM93.47 17.4545H96.5453V26.9006C96.5453 27.9612 96.292 28.8892 95.7853 29.6847C95.2834 30.4801 94.5803 31.1004 93.676 31.5455C92.7716 31.9858 91.7181 32.206 90.5154 32.206C89.3081 32.206 88.2522 31.9858 87.3478 31.5455C86.4435 31.1004 85.7403 30.4801 85.2385 29.6847C84.7366 28.8892 84.4856 27.9612 84.4856 26.9006V17.4545H87.5609V26.6378C87.5609 27.1918 87.6816 27.6842 87.9231 28.1151C88.1693 28.5459 88.515 28.8845 88.96 29.1307C89.4051 29.3769 89.9236 29.5 90.5154 29.5C91.112 29.5 91.6305 29.3769 92.0708 29.1307C92.5159 28.8845 92.8592 28.5459 93.1007 28.1151C93.3469 27.6842 93.47 27.1918 93.47 26.6378V17.4545ZM99.0755 32V17.4545H108.877V19.9901H102.151V23.456H108.372V25.9915H102.151V29.4645H108.905V32H99.0755ZM125.595 22.1562C125.496 21.8106 125.356 21.5052 125.176 21.2401C124.996 20.9702 124.776 20.7429 124.516 20.5582C124.26 20.3688 123.967 20.2244 123.635 20.125C123.308 20.0256 122.946 19.9759 122.548 19.9759C121.805 19.9759 121.152 20.1605 120.588 20.5298C120.03 20.8991 119.594 21.4366 119.281 22.142C118.969 22.8428 118.813 23.6998 118.813 24.7131C118.813 25.7263 118.967 26.5881 119.274 27.2983C119.582 28.0085 120.018 28.5507 120.581 28.9247C121.145 29.294 121.81 29.4787 122.577 29.4787C123.273 29.4787 123.867 29.3556 124.36 29.1094C124.857 28.8584 125.235 28.5057 125.496 28.0511C125.761 27.5966 125.894 27.0592 125.894 26.4389L126.519 26.5312H122.769V24.2159H128.855V26.0483C128.855 27.3267 128.585 28.4252 128.046 29.3438C127.506 30.2576 126.762 30.9631 125.816 31.4602C124.869 31.9527 123.784 32.1989 122.563 32.1989C121.199 32.1989 120.001 31.8982 118.969 31.2969C117.937 30.6908 117.132 29.8314 116.554 28.7188C115.981 27.6013 115.695 26.2756 115.695 24.7415C115.695 23.5625 115.865 22.5114 116.206 21.5881C116.552 20.66 117.035 19.8741 117.655 19.2301C118.275 18.5862 118.997 18.0961 119.821 17.7599C120.645 17.4238 121.538 17.2557 122.499 17.2557C123.323 17.2557 124.09 17.3764 124.8 17.6179C125.51 17.8546 126.14 18.1908 126.689 18.6264C127.243 19.062 127.695 19.5805 128.046 20.1818C128.396 20.7784 128.621 21.4366 128.72 22.1562H125.595ZM131.165 32V17.4545H136.904C138.002 17.4545 138.94 17.651 139.716 18.044C140.498 18.4323 141.092 18.9839 141.499 19.6989C141.911 20.4091 142.117 21.2448 142.117 22.206C142.117 23.1719 141.909 24.0028 141.492 24.6989C141.075 25.3902 140.472 25.9205 139.681 26.2898C138.895 26.6591 137.943 26.8438 136.826 26.8438H132.983V24.3722H136.329C136.916 24.3722 137.403 24.2917 137.792 24.1307C138.18 23.9697 138.469 23.7282 138.658 23.4062C138.852 23.0843 138.949 22.6842 138.949 22.206C138.949 21.723 138.852 21.3158 138.658 20.9844C138.469 20.6529 138.178 20.402 137.785 20.2315C137.396 20.0563 136.906 19.9688 136.314 19.9688H134.241V32H131.165ZM139.02 25.3807L142.635 32H139.241L135.704 25.3807H139.02ZM157.657 24.7273C157.657 26.3134 157.356 27.6629 156.755 28.7756C156.158 29.8883 155.344 30.7382 154.312 31.3253C153.284 31.9077 152.129 32.1989 150.846 32.1989C149.553 32.1989 148.393 31.9053 147.366 31.3182C146.338 30.7311 145.526 29.8812 144.93 28.7685C144.333 27.6558 144.035 26.3087 144.035 24.7273C144.035 23.1411 144.333 21.7917 144.93 20.679C145.526 19.5663 146.338 18.7187 147.366 18.1364C148.393 17.5492 149.553 17.2557 150.846 17.2557C152.129 17.2557 153.284 17.5492 154.312 18.1364C155.344 18.7187 156.158 19.5663 156.755 20.679C157.356 21.7917 157.657 23.1411 157.657 24.7273ZM154.539 24.7273C154.539 23.6998 154.385 22.8333 154.077 22.1278C153.774 21.4223 153.346 20.8873 152.792 20.5227C152.238 20.1581 151.589 19.9759 150.846 19.9759C150.102 19.9759 149.454 20.1581 148.9 20.5227C148.346 20.8873 147.915 21.4223 147.607 22.1278C147.304 22.8333 147.153 23.6998 147.153 24.7273C147.153 25.7547 147.304 26.6212 147.607 27.3267C147.915 28.0322 148.346 28.5672 148.9 28.9318C149.454 29.2964 150.102 29.4787 150.846 29.4787C151.589 29.4787 152.238 29.2964 152.792 28.9318C153.346 28.5672 153.774 28.0322 154.077 27.3267C154.385 26.6212 154.539 25.7547 154.539 24.7273ZM162.662 32L158.5 17.4545H161.86L164.267 27.5611H164.388L167.044 17.4545H169.921L172.57 27.5824H172.698L175.105 17.4545H178.465L174.303 32H171.306L168.536 22.4901H168.422L165.659 32H162.662ZM179.557 19.9901V17.4545H191.503V19.9901H187.05V32H184.01V19.9901H179.557ZM193.47 32V17.4545H196.545V23.456H202.788V17.4545H205.856V32H202.788V25.9915H196.545V32H193.47ZM215.528 32H212.232L217.254 17.4545H221.217L226.231 32H222.936L219.292 20.7784H219.178L215.528 32ZM215.322 26.2827H223.106V28.6832H215.322V26.2827ZM240.148 17.4545V32H237.492L231.164 22.8452H231.057V32H227.982V17.4545H230.681L236.959 26.6023H237.087V17.4545H240.148ZM247.845 32H242.689V17.4545H247.888C249.351 17.4545 250.61 17.7457 251.666 18.3281C252.722 18.9058 253.534 19.7367 254.102 20.821C254.675 21.9053 254.961 23.2027 254.961 24.7131C254.961 26.2282 254.675 27.5303 254.102 28.6193C253.534 29.7083 252.717 30.544 251.652 31.1264C250.591 31.7088 249.322 32 247.845 32ZM245.764 29.3651H247.717C248.626 29.3651 249.391 29.2041 250.011 28.8821C250.636 28.5554 251.105 28.0511 251.417 27.3693C251.735 26.6828 251.893 25.7973 251.893 24.7131C251.893 23.6383 251.735 22.7599 251.417 22.0781C251.105 21.3963 250.639 20.8944 250.018 20.5724C249.398 20.2505 248.633 20.0895 247.724 20.0895H245.764V29.3651ZM261.868 32V17.4545H267.607C268.71 17.4545 269.65 17.6652 270.427 18.0866C271.203 18.5033 271.795 19.0833 272.202 19.8267C272.614 20.5653 272.82 21.4176 272.82 22.3835C272.82 23.3494 272.612 24.2017 272.195 24.9403C271.778 25.679 271.175 26.2543 270.384 26.6662C269.598 27.0781 268.646 27.2841 267.529 27.2841H263.871V24.8196H267.032C267.624 24.8196 268.111 24.7178 268.495 24.5142C268.883 24.3059 269.172 24.0194 269.361 23.6548C269.555 23.2855 269.653 22.8617 269.653 22.3835C269.653 21.9006 269.555 21.4792 269.361 21.1193C269.172 20.7547 268.883 20.473 268.495 20.2741C268.107 20.0705 267.614 19.9688 267.018 19.9688H264.944V32H261.868ZM274.818 32V17.4545H280.556C281.655 17.4545 282.592 17.651 283.369 18.044C284.15 18.4323 284.744 18.9839 285.151 19.6989C285.563 20.4091 285.769 21.2448 285.769 22.206C285.769 23.1719 285.561 24.0028 285.144 24.6989C284.728 25.3902 284.124 25.9205 283.333 26.2898C282.547 26.6591 281.596 26.8438 280.478 26.8438H276.636V24.3722H279.981C280.568 24.3722 281.056 24.2917 281.444 24.1307C281.832 23.9697 282.121 23.7282 282.311 23.4062C282.505 23.0843 282.602 22.6842 282.602 22.206C282.602 21.723 282.505 21.3158 282.311 20.9844C282.121 20.6529 281.83 20.402 281.437 20.2315C281.049 20.0563 280.559 19.9688 279.967 19.9688H277.893V32H274.818ZM282.673 25.3807L286.288 32H282.893L279.356 25.3807H282.673ZM301.309 24.7273C301.309 26.3134 301.008 27.6629 300.407 28.7756C299.811 29.8883 298.996 30.7382 297.964 31.3253C296.936 31.9077 295.781 32.1989 294.498 32.1989C293.205 32.1989 292.045 31.9053 291.018 31.3182C289.99 30.7311 289.178 29.8812 288.582 28.7685C287.985 27.6558 287.687 26.3087 287.687 24.7273C287.687 23.1411 287.985 21.7917 288.582 20.679C289.178 19.5663 289.99 18.7187 291.018 18.1364C292.045 17.5492 293.205 17.2557 294.498 17.2557C295.781 17.2557 296.936 17.5492 297.964 18.1364C298.996 18.7187 299.811 19.5663 300.407 20.679C301.008 21.7917 301.309 23.1411 301.309 24.7273ZM298.191 24.7273C298.191 23.6998 298.037 22.8333 297.73 22.1278C297.427 21.4223 296.998 20.8873 296.444 20.5227C295.89 20.1581 295.241 19.9759 294.498 19.9759C293.755 19.9759 293.106 20.1581 292.552 20.5227C291.998 20.8873 291.567 21.4223 291.259 22.1278C290.956 22.8333 290.805 23.6998 290.805 24.7273C290.805 25.7547 290.956 26.6212 291.259 27.3267C291.567 28.0322 291.998 28.5672 292.552 28.9318C293.106 29.2964 293.755 29.4787 294.498 29.4787C295.241 29.4787 295.89 29.2964 296.444 28.9318C296.998 28.5672 297.427 28.0322 297.73 27.3267C298.037 26.6212 298.191 25.7547 298.191 24.7273ZM303.587 32V17.4545H313.218V19.9901H306.662V23.456H312.579V25.9915H306.662V32H303.587ZM318.362 17.4545V32H315.286V17.4545H318.362ZM320.338 19.9901V17.4545H332.284V19.9901H327.831V32H324.791V19.9901H320.338ZM334.981 32H331.686L336.707 17.4545H340.67L345.684 32H342.389L338.745 20.7784H338.632L334.981 32ZM334.775 26.2827H342.559V28.6832H334.775V26.2827ZM347.435 32V17.4545H353.259C354.329 17.4545 355.221 17.6132 355.936 17.9304C356.651 18.2476 357.189 18.688 357.548 19.2514C357.908 19.8101 358.088 20.4541 358.088 21.1832C358.088 21.7514 357.975 22.2509 357.747 22.6818C357.52 23.108 357.208 23.4583 356.81 23.733C356.417 24.0028 355.967 24.1946 355.46 24.3082V24.4503C356.014 24.474 356.533 24.6302 357.016 24.919C357.503 25.2079 357.899 25.6127 358.202 26.1335C358.505 26.6496 358.656 27.2652 358.656 27.9801C358.656 28.7519 358.465 29.4408 358.081 30.0469C357.702 30.6482 357.141 31.1241 356.398 31.4744C355.655 31.8248 354.738 32 353.649 32H347.435ZM350.51 29.4858H353.017C353.874 29.4858 354.499 29.3224 354.892 28.9957C355.285 28.6643 355.482 28.224 355.482 27.6747C355.482 27.2723 355.385 26.9171 355.191 26.6094C354.996 26.3016 354.719 26.0601 354.36 25.8849C354.004 25.7098 353.581 25.6222 353.088 25.6222H350.51V29.4858ZM350.51 23.5412H352.79C353.211 23.5412 353.585 23.4678 353.912 23.321C354.244 23.1695 354.504 22.9564 354.693 22.6818C354.887 22.4072 354.985 22.0781 354.985 21.6946C354.985 21.169 354.798 20.7453 354.423 20.4233C354.054 20.1013 353.529 19.9403 352.847 19.9403H350.51V23.5412ZM363.733 17.4545V32H360.657V17.4545H363.733ZM366.263 32V17.4545H369.338V29.4645H375.574V32H366.263ZM380.686 17.4545V32H377.611V17.4545H380.686ZM382.662 19.9901V17.4545H394.608V19.9901H390.155V32H387.115V19.9901H382.662ZM395.723 17.4545H399.168L402.485 23.7188H402.627L405.943 17.4545H409.388L404.083 26.858V32H401.029V26.858L395.723 17.4545Z" fill="white"/>
</svg>
